<svg width="640" height="364" xmlns="http://www.w3.org/2000/svg"><g transform="translate(0 2)" fill="none" fill-rule="evenodd"><g transform="translate(0 311)" fill="#264575"><rect x="80" width="260" height="4" rx="2"/><rect x="464" width="141" height="4" rx="2"/><rect width="20" height="4" rx="2"/><rect x="32" width="36" height="4" rx="2"/><rect x="620" width="20" height="4" rx="2"/></g><path stroke="#264575" stroke-width="4" fill="#F2F8FE" stroke-linecap="square" d="M425 0h84v84h-84z"/><circle fill="#264575" cx="468.5" cy="65" r="3.75"/><g stroke="#264575" stroke-linecap="square" stroke-width="4"><path d="M203 240V66c0-36.45 29.55-66 66-66s66 29.55 66 66v228c0 36.45 29.55 66 66 66s66-29.55 66-66V120"/><path fill="#A3CDF7" d="M161 276h84v84h-84z"/><path d="M456 25c1.875-4.375 6.375-7.5 11.5-7.5 6.875 0 12.5 5.625 12.5 12.5s-5.625 12.5-12.5 12.5V50"/></g></g></svg>
