
<svg width="640" height="342" xmlns="http://www.w3.org/2000/svg"><g fill="none" fill-rule="evenodd"><g transform="translate(0 305)" fill="#264575"><rect x="80" width="524" height="4" rx="2"/><rect width="20" height="4" rx="2"/><rect x="32" width="36" height="4" rx="2"/><rect x="620" width="20" height="4" rx="2"/></g><path stroke="#264575" stroke-width="4" fill="#A3CDF7" fill-rule="nonzero" d="M299 280h72v60h-72z"/><path d="M153.434 256.754h363.644c-2.724 16.976-11.958 25.465-27.703 25.465s-120.059-.155-312.941-.465c-5.674 0-11.007-2.667-16-8-4.994-5.333-7.327-11-7-17z" fill="#BDDAF9"/><path d="M491 282H179c-14.359 0-26-11.641-26-26V28c0-14.359 11.641-26 26-26h312c14.359 0 26 11.641 26 26v228c0 14.359-11.641 26-26 26zM155 256h360M251 340h168" stroke="#264575" stroke-width="4" stroke-linecap="square"/><g stroke="#264575" stroke-width="4"><path fill="#F2F8FE" stroke-linecap="square" d="M375 52h180v156H375z"/><path fill="#BDDAF9" stroke-linecap="square" d="M375 52h180v44H375z"/><path stroke-linecap="round" stroke-linejoin="round" d="M405 124l24 24-24 24M441 172h36M399 73h12M429 73h12M498 73h33"/></g><g transform="rotate(90 -21.5 198.5)" stroke="#264575" stroke-width="4"><path fill="#A3CDF7" stroke-linecap="square" d="M0 0h120v48H0z"/><path d="M28 24H16" stroke-linecap="round" stroke-linejoin="round"/><circle fill="#FFF" stroke-linecap="square" cx="95" cy="24" r="8"/></g><g transform="translate(201 132)" fill="#264575" opacity=".2"><rect width="116" height="4" rx="2"/><rect y="16" width="116" height="4" rx="2"/><rect y="32" width="116" height="4" rx="2"/><rect y="48" width="116" height="4" rx="2"/><rect y="64" width="20" height="4" rx="2"/><rect x="32" y="64" width="36" height="4" rx="2"/></g><g opacity=".2" transform="translate(201 53)"><path stroke="#264575" stroke-width="4" stroke-linecap="square" d="M0 38L20 0l20 38zM20 15v9"/><circle stroke="#264575" stroke-width="4" stroke-linecap="square" cx="20" cy="31" r="1"/><circle fill="#264575" fill-rule="nonzero" cx="20" cy="31" r="1"/></g></g></svg>
