
<svg width="182" height="32" viewBox="0 0 182 32" fill="none" xmlns="http://www.w3.org/2000/svg">
<g clip-path="url(#clip0)">
<path fill-rule="evenodd" clip-rule="evenodd" d="M27.7982 29.7326C26.4346 30.2461 24.9579 30.5293 23.4146 30.5293C21.8601 30.5293 20.3735 30.2417 19.0015 29.7213L20.4175 21.7704C19.3444 20.8988 18.6579 19.5693 18.6579 18.0784C18.6579 15.4515 20.7877 13.3221 23.4146 13.3221C26.0422 13.3221 28.1713 15.4515 28.1713 18.0784C28.1713 19.5821 27.4724 20.9203 26.3833 21.7923L27.7982 29.7326ZM40.5168 15.7293C40.2168 15.7293 39.9251 15.7592 39.6375 15.8017C40.1542 14.817 40.4506 13.6981 40.4506 12.5083C40.4506 8.5868 37.271 5.40753 33.3499 5.40753C32.0953 5.40753 30.92 5.73771 29.8971 6.30825C29.8837 6.30098 29.871 6.29334 29.8582 6.28571C29.6644 3.20825 27.1146 0.768616 23.988 0.768616C21.0855 0.768616 18.68 2.87007 18.1928 5.63334C18.1833 5.63698 18.1731 5.64062 18.1637 5.64498C17.2971 5.14353 16.2946 4.85116 15.2219 4.85116C12.1906 4.85116 9.69605 7.14134 9.36878 10.0853C8.47678 9.5428 7.43351 9.22389 6.31314 9.22389C3.05932 9.22389 0.421143 11.8613 0.421143 15.1152C0.421143 17.4624 1.79714 19.4828 3.78296 20.4301C3.76623 20.6406 3.75496 20.8537 3.75496 21.069C3.75496 25.4944 7.3426 29.0803 11.7666 29.0803C12.8382 29.0803 13.8575 28.8639 14.7913 28.4821C17.1182 30.3981 20.099 31.5493 23.3491 31.5493C23.8135 31.5493 24.2731 31.5261 24.7262 31.4799C27.2524 31.2235 29.5706 30.2668 31.488 28.8101C32.3971 29.3839 33.4706 29.7206 34.6244 29.7206C36.5393 29.7206 38.2353 28.8028 39.3113 27.3883C39.7004 27.469 40.1033 27.513 40.5168 27.513C43.7702 27.513 46.408 24.8752 46.408 21.6206C46.408 18.3672 43.7702 15.7293 40.5168 15.7293Z" fill="white"/>
<path fill-rule="evenodd" clip-rule="evenodd" d="M36.8871 18.0791C36.8871 25.5191 30.8551 31.5507 23.4154 31.5507C15.9751 31.5507 9.94342 25.5191 9.94342 18.0791C9.94342 10.6387 15.9751 4.60706 23.4154 4.60706C30.8551 4.60706 36.8871 10.6387 36.8871 18.0791Z" stroke="white" stroke-width="2"/>
<path fill-rule="evenodd" clip-rule="evenodd" d="M40.6693 15.6037C40.3686 15.6037 40.0755 15.6339 39.7868 15.6765C40.3057 14.6874 40.6032 13.5645 40.6032 12.3696C40.6032 8.43247 37.4108 5.24119 33.4744 5.24119C32.2152 5.24119 31.0352 5.57246 30.0082 6.14519C29.9948 6.13792 29.9817 6.13028 29.969 6.12265C29.7744 3.03283 27.2144 0.583374 24.0755 0.583374C21.1617 0.583374 18.7464 2.69356 18.2573 5.46737C18.2475 5.47137 18.2377 5.47501 18.2283 5.47937C17.3584 4.97574 16.3515 4.68228 15.2748 4.68228C12.2315 4.68228 9.7268 6.98156 9.39843 9.93719C8.5028 9.39246 7.45553 9.07246 6.3308 9.07246C3.06425 9.07246 0.415527 11.7205 0.415527 14.987C0.415527 17.3437 1.79698 19.3714 3.79044 20.3226C3.77371 20.5346 3.76244 20.7485 3.76244 20.9645C3.76244 25.4074 7.36425 29.0074 11.8057 29.0074C12.8817 29.0074 13.905 28.7899 14.8428 28.4063C17.1784 30.3303 20.1712 31.4859 23.4341 31.4859C23.9003 31.4859 24.3617 31.4623 24.8166 31.4161C27.353 31.1586 29.6802 30.1983 31.6053 28.7357C32.5181 29.3121 33.5955 29.6499 34.7541 29.6499C36.6766 29.6499 38.3792 28.7288 39.4595 27.3085C39.8501 27.3896 40.2544 27.4339 40.6693 27.4339C43.9359 27.4339 46.5842 24.7856 46.5842 21.5186C46.5842 18.2521 43.9359 15.6037 40.6693 15.6037Z" stroke="white" stroke-width="1.8" stroke-linecap="round" stroke-linejoin="round"/>
<path fill-rule="evenodd" clip-rule="evenodd" d="M19.9108 12.0304C20.9428 11.433 22.1369 11.085 23.4155 11.085C24.694 11.085 25.8886 11.433 26.9202 12.0304V6.21042C26.9202 6.18352 26.9162 6.15697 26.9126 6.13079C25.8028 5.80642 24.63 5.62933 23.4155 5.62933C22.2006 5.62933 21.0282 5.80642 19.9188 6.13079C19.9151 6.15733 19.9108 6.18352 19.9108 6.21115V12.0304Z" fill="white"/>
<path fill-rule="evenodd" clip-rule="evenodd" d="M16.4054 18.0943C16.4054 16.8103 16.7567 15.61 17.3604 14.5743H11.4691C11.1429 15.6871 10.9651 16.862 10.9651 18.0794C10.9651 19.2976 11.1429 20.4729 11.4691 21.5852H17.3418C16.7494 20.5565 16.4054 19.3671 16.4054 18.0943Z" fill="white"/>
<path fill-rule="evenodd" clip-rule="evenodd" d="M29.4708 14.5745C30.0741 15.6101 30.4254 16.8101 30.4254 18.0945C30.4254 19.3672 30.0817 20.5566 29.489 21.585H35.3621C35.6879 20.473 35.8661 19.2974 35.8661 18.0796C35.8661 16.8621 35.6879 15.6872 35.3621 14.5745H29.4708Z" fill="white"/>
<path fill-rule="evenodd" clip-rule="evenodd" d="M17.854 12.0041V6.94122C15.4129 8.16231 13.4292 10.1601 12.2285 12.6121H17.246C17.5812 12.6121 17.854 12.3401 17.854 12.0041Z" fill="white"/>
<path fill-rule="evenodd" clip-rule="evenodd" d="M29.5855 12.6121H34.603C33.4015 10.1601 31.4179 8.16231 28.9768 6.94049V12.0041C28.9768 12.3401 29.2492 12.6121 29.5855 12.6121Z" fill="white"/>
<path fill-rule="evenodd" clip-rule="evenodd" d="M17.246 23.5468H12.2282C13.2748 25.6831 14.914 27.4773 16.9333 28.71L17.854 24.1555C17.854 23.8188 17.5813 23.5468 17.246 23.5468Z" fill="white"/>
<path fill-rule="evenodd" clip-rule="evenodd" d="M28.9769 24.1554L29.8918 28.7143C31.9136 27.4809 33.5554 25.686 34.603 23.5467H29.5856C29.2492 23.5467 28.9769 23.8187 28.9769 24.1554Z" fill="white"/>
<path fill-rule="evenodd" clip-rule="evenodd" d="M40.5572 15.7147C40.2575 15.7147 39.9655 15.7445 39.6779 15.7871C40.195 14.802 40.491 13.6834 40.491 12.4929C40.491 8.57142 37.3114 5.39251 33.3903 5.39251C32.1361 5.39251 30.9605 5.72233 29.9379 6.29324C29.9245 6.28596 29.9117 6.27833 29.8986 6.27069C29.7048 3.19287 27.1554 0.753235 24.0288 0.753235C21.1259 0.753235 18.7205 2.85505 18.2332 5.61796C18.2237 5.62196 18.2139 5.6256 18.2041 5.62996C17.3375 5.12851 16.3354 4.83614 15.2623 4.83614C12.2314 4.83614 9.73646 7.12633 9.40955 10.0703C8.51755 9.52778 7.47391 9.20887 6.35355 9.20887C3.10009 9.20887 0.461548 11.8467 0.461548 15.1005C0.461548 17.4478 1.83755 19.4674 3.823 20.4151C3.807 20.626 3.79537 20.8391 3.79537 21.0543C3.79537 25.4798 7.383 29.0656 11.807 29.0656C12.879 29.0656 13.8979 28.8489 14.8321 28.4667C17.1586 30.3831 20.1397 31.5343 23.3895 31.5343C23.8539 31.5343 24.3135 31.5111 24.7666 31.4649C27.2928 31.2085 29.611 30.2518 31.5288 28.7951C32.4379 29.3689 33.511 29.7056 34.6652 29.7056C36.5797 29.7056 38.2761 28.7878 39.3521 27.3732C39.7412 27.454 40.1437 27.498 40.5572 27.498C43.8106 27.498 46.4485 24.8601 46.4485 21.606C46.4485 18.3525 43.8106 15.7147 40.5572 15.7147Z" fill="white"/>
<path fill-rule="evenodd" clip-rule="evenodd" d="M40.5572 15.7147C40.2575 15.7147 39.9655 15.7445 39.6779 15.7871C40.195 14.802 40.491 13.6834 40.491 12.4929C40.491 8.57142 37.3114 5.39251 33.3903 5.39251C32.1361 5.39251 30.9605 5.72233 29.9379 6.29324C29.9245 6.28596 29.9117 6.27833 29.8986 6.27069C29.7048 3.19287 27.1554 0.753235 24.0288 0.753235C21.1259 0.753235 18.7205 2.85505 18.2332 5.61796C18.2237 5.62196 18.2139 5.6256 18.2041 5.62996C17.3375 5.12851 16.3354 4.83614 15.2623 4.83614C12.2314 4.83614 9.73646 7.12633 9.40955 10.0703C8.51755 9.52778 7.47391 9.20887 6.35355 9.20887C3.10009 9.20887 0.461548 11.8467 0.461548 15.1005C0.461548 17.4478 1.83755 19.4674 3.823 20.4151C3.807 20.626 3.79537 20.8391 3.79537 21.0543C3.79537 25.4798 7.383 29.0656 11.807 29.0656C12.879 29.0656 13.8979 28.8489 14.8321 28.4667C17.1586 30.3831 20.1397 31.5343 23.3895 31.5343C23.8539 31.5343 24.3135 31.5111 24.7666 31.4649C27.2928 31.2085 29.611 30.2518 31.5288 28.7951C32.4379 29.3689 33.511 29.7056 34.6652 29.7056C36.5797 29.7056 38.2761 28.7878 39.3521 27.3732C39.7412 27.454 40.1437 27.498 40.5572 27.498C43.8106 27.498 46.4485 24.8601 46.4485 21.606C46.4485 18.3525 43.8106 15.7147 40.5572 15.7147Z" stroke="#3783E3" stroke-linecap="round" stroke-linejoin="round"/>
<path fill-rule="evenodd" clip-rule="evenodd" d="M36.8874 18.0799C36.8874 25.5203 30.8558 31.5519 23.4158 31.5519C15.9754 31.5519 9.94379 25.5203 9.94379 18.0799C9.94379 10.6395 15.9754 4.60828 23.4158 4.60828C30.8558 4.60828 36.8874 10.6395 36.8874 18.0799Z" fill="white"/>
<path fill-rule="evenodd" clip-rule="evenodd" d="M36.8874 18.0772C36.8874 25.5176 30.8554 31.5492 23.4158 31.5492C15.9754 31.5492 9.94379 25.5176 9.94379 18.0772C9.94379 10.6372 15.9754 4.60559 23.4158 4.60559C30.8554 4.60559 36.8874 10.6372 36.8874 18.0772Z" stroke="#3783E3"/>
<path fill-rule="evenodd" clip-rule="evenodd" d="M28.1467 18.0724C28.1467 15.4674 26.035 13.3561 23.4292 13.3561C20.8248 13.3561 18.7132 15.4674 18.7132 18.0724C18.7132 19.5503 19.3936 20.8684 20.4576 21.7328L19.0536 29.6164C20.4143 30.1321 21.8881 30.4175 23.4292 30.4175C24.9597 30.4175 26.4245 30.1364 27.7765 29.6277L26.3732 21.7543C27.4536 20.8899 28.1467 19.5634 28.1467 18.0724Z" fill="#3783E3"/>
<path fill-rule="evenodd" clip-rule="evenodd" d="M19.9109 12.0304C20.9429 11.4329 22.1374 11.0849 23.416 11.0849C24.6942 11.0849 25.8887 11.4329 26.9207 12.0304V6.21073C26.9207 6.18346 26.9167 6.15691 26.9131 6.13109C25.8029 5.80637 24.6305 5.62964 23.416 5.62964C22.2007 5.62964 21.0287 5.80637 19.9193 6.13109C19.9153 6.15727 19.9109 6.18346 19.9109 6.21146V12.0304Z" fill="#0E2653"/>
<path fill-rule="evenodd" clip-rule="evenodd" d="M16.4059 18.0945C16.4059 16.8105 16.7568 15.6101 17.3604 14.5745H11.4692C11.143 15.6876 10.9655 16.8621 10.9655 18.0796C10.9655 19.2977 11.143 20.473 11.4692 21.5854H17.3419C16.7495 20.5566 16.4059 19.3672 16.4059 18.0945Z" fill="#0E2653"/>
<path fill-rule="evenodd" clip-rule="evenodd" d="M29.4713 14.5746C30.0742 15.6102 30.4258 16.8102 30.4258 18.0946C30.4258 19.3673 30.0822 20.5568 29.4891 21.5851H35.3625C35.688 20.4731 35.8662 19.2975 35.8662 18.0797C35.8662 16.8622 35.688 15.6877 35.3625 14.5746H29.4713Z" fill="#0E2653"/>
<path fill-rule="evenodd" clip-rule="evenodd" d="M17.854 12.0041V6.94153C15.4129 8.16226 13.4293 10.1604 12.2289 12.6121H17.246C17.5813 12.6121 17.854 12.3401 17.854 12.0041Z" fill="#0E2653"/>
<path fill-rule="evenodd" clip-rule="evenodd" d="M29.5856 12.6121H34.6034C33.4016 10.1604 31.418 8.16225 28.9769 6.9408V12.0041C28.9769 12.3401 29.2496 12.6121 29.5856 12.6121Z" fill="#0E2653"/>
<path fill-rule="evenodd" clip-rule="evenodd" d="M17.2461 23.5469H12.2283C13.2752 25.6832 14.9145 27.4774 16.9337 28.7102L17.8541 24.1556C17.8541 23.8189 17.5814 23.5469 17.2461 23.5469Z" fill="#0E2653"/>
<path fill-rule="evenodd" clip-rule="evenodd" d="M28.9769 24.1555L29.8918 28.7145C31.9136 27.481 33.5558 25.6861 34.6034 23.5468H29.5856C29.2496 23.5468 28.9769 23.8188 28.9769 24.1555Z" fill="#0E2653"/>
<path fill-rule="evenodd" clip-rule="evenodd" d="M68.1342 16.7705C68.1342 16.0628 68.0462 15.405 67.8699 14.797C67.6939 14.189 67.4113 13.6621 67.0219 13.2163C66.6328 12.7701 66.1328 12.4221 65.5226 12.1719C64.9113 11.9221 64.1109 11.7966 63.1193 11.7966H61.4851V21.9519H63.1691C64.0539 21.9519 64.7989 21.8439 65.4055 21.6286C66.0113 21.4137 66.5179 21.0883 66.9233 20.6537C67.3295 20.2188 67.632 19.6785 67.8339 19.0323C68.0335 18.3857 68.1342 17.6323 68.1342 16.7705ZM71.4771 16.6665C71.4771 18.0359 71.2869 19.2072 70.9055 20.1806C70.5248 21.1537 69.9779 21.9479 69.2648 22.5636C68.5524 23.1792 67.6862 23.6308 66.6655 23.9192C65.6448 24.2079 64.4302 24.3523 63.0211 24.3523H59.2229C58.9531 24.3523 58.7244 24.2774 58.5404 24.1272C58.3564 23.977 58.264 23.7326 58.264 23.3945V10.3774C58.264 10.0388 58.3564 9.79446 58.5404 9.64428C58.7244 9.49446 58.9531 9.41956 59.2229 9.41956H63.3033C64.7215 9.41956 65.924 9.57556 66.912 9.88683C67.8993 10.1985 68.7309 10.6599 69.4069 11.2716C70.0822 11.8836 70.5964 12.6396 70.9495 13.5392C71.3011 14.4396 71.4771 15.4817 71.4771 16.6665Z" fill="white"/>
<path fill-rule="evenodd" clip-rule="evenodd" d="M85.0469 16.8745C85.0469 16.0898 84.9814 15.3759 84.8509 14.7338C84.7196 14.0912 84.4956 13.5414 84.1803 13.0832C83.865 12.6258 83.4461 12.2719 82.921 12.0218C82.397 11.7719 81.7407 11.6468 80.9545 11.6468C80.1592 11.6468 79.4949 11.7872 78.9632 12.0679C78.4305 12.349 78 12.7239 77.6727 13.1934C77.3451 13.6621 77.1131 14.2105 76.9781 14.8374C76.8429 15.4647 76.7756 16.1279 76.7756 16.8283C76.7756 17.6436 76.8411 18.3767 76.9716 19.0265C77.1029 19.6763 77.3247 20.2323 77.6363 20.6941C77.9469 21.1556 78.3651 21.5072 78.8891 21.7497C79.4141 21.9923 80.0731 22.113 80.8687 22.113C81.6632 22.113 82.3261 21.9748 82.86 21.6981C83.392 21.421 83.8225 21.0443 84.1498 20.5668C84.4781 20.0901 84.7094 19.5341 84.8443 18.8992C84.98 18.265 85.0469 17.5898 85.0469 16.8745ZM88.4396 16.7127C88.4396 17.9512 88.2756 19.0592 87.9483 20.0363C87.6207 21.0134 87.1327 21.8421 86.4858 22.5228C85.8381 23.2039 85.037 23.7232 84.0825 24.081C83.128 24.4385 82.0236 24.6174 80.7698 24.6174C79.5327 24.6174 78.4531 24.4654 77.5312 24.1617C76.6087 23.8577 75.8411 23.3945 75.2265 22.7712C74.6123 22.1479 74.1512 21.3556 73.8429 20.3941C73.5371 19.4323 73.3829 18.2934 73.3829 16.9781C73.3829 15.7701 73.5469 14.6836 73.8741 13.7181C74.2025 12.7527 74.6898 11.9312 75.3374 11.2545C75.9843 10.5778 76.7854 10.0581 77.74 9.69666C78.6945 9.33484 79.8032 9.15448 81.0647 9.15448C82.2698 9.15448 83.333 9.3043 84.2549 9.6043C85.1767 9.9043 85.9469 10.3661 86.5654 10.9887C87.184 11.6123 87.6512 12.3985 87.9665 13.349C88.2818 14.2992 88.4396 15.4203 88.4396 16.7127Z" fill="white"/>
<path fill-rule="evenodd" clip-rule="evenodd" d="M102.071 16.8745C102.071 16.0898 102.006 15.3759 101.874 14.7338C101.743 14.0912 101.52 13.5414 101.204 13.0832C100.888 12.6258 100.469 12.2719 99.9445 12.0218C99.4198 11.7719 98.7641 11.6468 97.9779 11.6468C97.1834 11.6468 96.519 11.7872 95.9874 12.0679C95.4539 12.349 95.0241 12.7239 94.6961 13.1934C94.3678 13.6621 94.1365 14.2105 94.0016 14.8374C93.8667 15.4647 93.799 16.1279 93.799 16.8283C93.799 17.6436 93.8645 18.3767 93.9958 19.0265C94.1263 19.6763 94.3474 20.2323 94.659 20.6941C94.9703 21.1556 95.3878 21.5072 95.9125 21.7497C96.4369 21.9923 97.0972 22.113 97.8914 22.113C98.6867 22.113 99.3503 21.9748 99.8827 21.6981C100.415 21.421 100.846 21.0443 101.173 20.5668C101.501 20.0901 101.732 19.5341 101.868 18.8992C102.003 18.265 102.071 17.5898 102.071 16.8745ZM105.464 16.7127C105.464 17.9512 105.3 19.0592 104.972 20.0363C104.643 21.0134 104.155 21.8421 103.509 22.5228C102.862 23.2039 102.06 23.7232 101.106 24.081C100.151 24.4385 99.0478 24.6174 97.7932 24.6174C96.5561 24.6174 95.4765 24.4654 94.5547 24.1617C93.6329 23.8577 92.8652 23.3945 92.25 22.7712C91.635 22.1479 91.1747 21.3556 90.867 20.3941C90.5598 19.4323 90.407 18.2934 90.407 16.9781C90.407 15.7701 90.5703 14.6836 90.8976 13.7181C91.2252 12.7527 91.7132 11.9312 92.3609 11.2545C93.0078 10.5778 93.8081 10.0581 94.7634 9.69666C95.7172 9.33484 96.8267 9.15448 98.0889 9.15448C99.2932 9.15448 100.356 9.3043 101.278 9.6043C102.2 9.9043 102.97 10.3661 103.589 10.9887C104.207 11.6123 104.675 12.3985 104.99 13.349C105.306 14.2992 105.464 15.4203 105.464 16.7127Z" fill="white"/>
<path fill-rule="evenodd" clip-rule="evenodd" d="M115.812 13.8276C115.812 13.3353 115.694 12.92 115.456 12.5814C115.219 12.2433 114.829 12.0043 114.288 11.8658C114.124 11.8276 113.938 11.7967 113.729 11.7738C113.52 11.7505 113.231 11.7389 112.863 11.7389H111.412V15.9742H113.06C113.518 15.9742 113.92 15.9222 114.263 15.8185C114.608 15.7145 114.894 15.5683 115.123 15.3803C115.353 15.1913 115.525 14.9665 115.64 14.7047C115.755 14.4433 115.812 14.1509 115.812 13.8276ZM119.979 23.9596C119.979 24.0443 119.963 24.1156 119.93 24.1734C119.897 24.2309 119.82 24.2789 119.697 24.3178C119.574 24.356 119.394 24.3829 119.155 24.3982C118.918 24.4134 118.594 24.4214 118.184 24.4214C117.841 24.4214 117.566 24.4134 117.362 24.3982C117.156 24.3829 116.994 24.3538 116.875 24.312C116.756 24.2694 116.672 24.2152 116.624 24.1502C116.575 24.0847 116.533 24.0058 116.501 23.9134L115.075 20.5785C114.903 20.2018 114.735 19.8669 114.571 19.5749C114.407 19.2822 114.225 19.0378 114.023 18.8418C113.824 18.6458 113.592 18.4974 113.33 18.3974C113.067 18.2978 112.764 18.2473 112.42 18.2473H111.412V23.9367C111.412 24.0138 111.386 24.0829 111.332 24.1443C111.278 24.2062 111.191 24.256 111.068 24.2942C110.945 24.3331 110.781 24.364 110.577 24.3865C110.371 24.4102 110.109 24.4214 109.79 24.4214C109.478 24.4214 109.218 24.4102 109.009 24.3865C108.8 24.364 108.634 24.3331 108.511 24.2942C108.388 24.256 108.303 24.2062 108.254 24.1443C108.204 24.0829 108.18 24.0138 108.18 23.9367V10.3774C108.18 10.0389 108.272 9.79453 108.456 9.64434C108.64 9.49453 108.868 9.41962 109.138 9.41962H113.256C113.673 9.41962 114.018 9.42689 114.288 9.44253C114.558 9.45816 114.805 9.47743 115.026 9.50034C115.665 9.58507 116.241 9.73089 116.753 9.93925C117.265 10.1465 117.699 10.4178 118.055 10.7523C118.412 11.0869 118.684 11.4833 118.873 11.9414C119.062 12.3985 119.155 12.924 119.155 13.5163C119.155 14.0167 119.088 14.472 118.953 14.8836C118.818 15.2953 118.619 15.6629 118.356 15.9862C118.094 16.3087 117.771 16.5898 117.386 16.8283C117.001 17.0665 116.563 17.2589 116.071 17.4051C116.308 17.5131 116.532 17.6436 116.741 17.7974C116.95 17.9513 117.146 18.1382 117.33 18.3574C117.515 18.5763 117.689 18.8265 117.853 19.1076C118.016 19.388 118.177 19.7054 118.332 20.0593L119.672 23.0018C119.795 23.2942 119.876 23.508 119.918 23.6422C119.958 23.7771 119.979 23.8829 119.979 23.9596Z" fill="white"/>
<path fill-rule="evenodd" clip-rule="evenodd" d="M131.275 10.6657C131.275 10.8966 131.265 11.0911 131.244 11.2489C131.224 11.4064 131.191 11.5315 131.146 11.6239C131.101 11.7162 131.05 11.7849 130.992 11.8311C130.935 11.8773 130.87 11.9006 130.796 11.9006H125.596V15.9162H130.477C130.549 15.9162 130.615 15.9355 130.673 15.9744C130.73 16.0126 130.781 16.0784 130.826 16.1708C130.872 16.2628 130.905 16.3857 130.925 16.5395C130.945 16.6933 130.956 16.8857 130.956 17.1166C130.956 17.3475 130.945 17.5399 130.925 17.6933C130.905 17.8475 130.872 17.9748 130.826 18.0744C130.781 18.174 130.73 18.2457 130.673 18.2879C130.615 18.3304 130.549 18.3515 130.477 18.3515H125.596V23.9137C125.596 23.998 125.572 24.0711 125.524 24.133C125.473 24.1944 125.386 24.2464 125.259 24.2886C125.131 24.3311 124.965 24.3639 124.76 24.3864C124.555 24.41 124.293 24.4213 123.975 24.4213C123.663 24.4213 123.402 24.41 123.193 24.3864C122.984 24.3639 122.819 24.3311 122.696 24.2886C122.572 24.2464 122.484 24.1944 122.432 24.133C122.378 24.0711 122.352 23.998 122.352 23.9137V10.3773C122.352 10.0388 122.443 9.7944 122.628 9.64422C122.813 9.4944 123.04 9.41949 123.311 9.41949H130.796C130.87 9.41949 130.935 9.44059 130.992 9.48313C131.05 9.52531 131.101 9.59477 131.146 9.6904C131.191 9.78713 131.224 9.91549 131.244 10.0777C131.265 10.2388 131.275 10.4348 131.275 10.6657Z" fill="white"/>
<path fill-rule="evenodd" clip-rule="evenodd" d="M142.644 23.0826C142.644 23.3135 142.634 23.508 142.614 23.6659C142.593 23.8233 142.562 23.9539 142.521 24.0579C142.48 24.1619 142.429 24.2368 142.367 24.2829C142.307 24.3291 142.234 24.352 142.153 24.352H134.864C134.594 24.352 134.366 24.2771 134.182 24.1273C133.997 23.9771 133.905 23.7328 133.905 23.3942V9.83495C133.905 9.75786 133.932 9.68913 133.986 9.62731C134.038 9.56549 134.126 9.51567 134.25 9.47749C134.373 9.43858 134.538 9.40804 134.747 9.38513C134.956 9.36186 135.217 9.35022 135.529 9.35022C135.847 9.35022 136.109 9.36186 136.314 9.38513C136.519 9.40804 136.683 9.43858 136.807 9.47749C136.93 9.51567 137.017 9.56549 137.07 9.62731C137.123 9.68913 137.15 9.75786 137.15 9.83495V21.848H142.153C142.234 21.848 142.307 21.8691 142.367 21.9113C142.429 21.9539 142.48 22.0229 142.521 22.1193C142.562 22.2153 142.593 22.3426 142.614 22.5C142.634 22.6579 142.644 22.8517 142.644 23.0826Z" fill="white"/>
<path fill-rule="evenodd" clip-rule="evenodd" d="M155.021 16.8745C155.021 16.0898 154.956 15.3759 154.825 14.7338C154.695 14.0912 154.47 13.5414 154.156 13.0832C153.839 12.6258 153.42 12.2719 152.895 12.0218C152.371 11.7719 151.716 11.6468 150.929 11.6468C150.134 11.6468 149.471 11.7872 148.938 12.0679C148.406 12.349 147.974 12.7239 147.648 13.1934C147.319 13.6621 147.089 14.2105 146.953 14.8374C146.818 15.4647 146.75 16.1279 146.75 16.8283C146.75 17.6436 146.815 18.3767 146.946 19.0265C147.077 19.6763 147.299 20.2323 147.61 20.6941C147.922 21.1556 148.34 21.5072 148.864 21.7497C149.389 21.9923 150.047 22.113 150.843 22.113C151.638 22.113 152.302 21.9748 152.834 21.6981C153.366 21.421 153.797 21.0443 154.125 20.5668C154.453 20.0901 154.684 19.5341 154.819 18.8992C154.954 18.265 155.021 17.5898 155.021 16.8745ZM158.414 16.7127C158.414 17.9512 158.25 19.0592 157.923 20.0363C157.595 21.0134 157.107 21.8421 156.46 22.5228C155.813 23.2039 155.011 23.7232 154.058 24.081C153.102 24.4385 151.998 24.6174 150.744 24.6174C149.506 24.6174 148.427 24.4654 147.505 24.1617C146.583 23.8577 145.815 23.3945 145.201 22.7712C144.587 22.1479 144.125 21.3556 143.819 20.3941C143.511 19.4323 143.357 18.2934 143.357 16.9781C143.357 15.7701 143.521 14.6836 143.849 13.7181C144.177 12.7527 144.664 11.9312 145.311 11.2545C145.959 10.5778 146.76 10.0581 147.714 9.69666C148.67 9.33484 149.777 9.15448 151.039 9.15448C152.244 9.15448 153.307 9.3043 154.229 9.6043C155.151 9.9043 155.922 10.3661 156.54 10.9887C157.159 11.6123 157.626 12.3985 157.941 13.349C158.256 14.2992 158.414 15.4203 158.414 16.7127Z" fill="white"/>
<path fill-rule="evenodd" clip-rule="evenodd" d="M177.564 23.579C177.515 23.7637 177.448 23.9114 177.361 24.0234C177.276 24.1346 177.146 24.2197 176.974 24.2772C176.803 24.3346 176.58 24.3732 176.31 24.3921C176.041 24.4117 175.696 24.4212 175.278 24.4212C174.811 24.4212 174.437 24.4117 174.153 24.3921C173.872 24.3732 173.647 24.3346 173.484 24.2772C173.32 24.2197 173.2 24.1346 173.127 24.0234C173.053 23.9114 172.995 23.7637 172.954 23.579L170.411 14.1165H170.387L167.977 23.579C167.936 23.7557 167.878 23.9001 167.805 24.0114C167.731 24.123 167.614 24.2096 167.455 24.2714C167.295 24.3328 167.078 24.3732 166.803 24.3921C166.528 24.4117 166.166 24.4212 165.715 24.4212C165.239 24.4212 164.861 24.4117 164.577 24.3921C164.296 24.3732 164.072 24.3346 163.908 24.2772C163.744 24.2197 163.627 24.1346 163.552 24.0234C163.477 23.9114 163.418 23.7637 163.367 23.579L159.754 10.5506C159.68 10.2736 159.639 10.0561 159.631 9.89864C159.624 9.74083 159.67 9.61937 159.772 9.53501C159.875 9.45028 160.043 9.39864 160.276 9.37937C160.509 9.35974 160.835 9.35028 161.253 9.35028C161.639 9.35028 161.944 9.3561 162.17 9.36774C162.394 9.37937 162.565 9.40592 162.679 9.44846C162.794 9.49101 162.871 9.5521 162.913 9.63283C162.953 9.71392 162.986 9.82737 163.011 9.97355L165.801 21.4092H165.814L168.714 10.0543C168.747 9.90774 168.79 9.78883 168.844 9.69646C168.896 9.6041 168.987 9.53283 169.115 9.48301C169.241 9.43319 169.416 9.39864 169.636 9.37937C169.858 9.35974 170.153 9.35028 170.521 9.35028C170.914 9.35028 171.229 9.35828 171.462 9.37355C171.695 9.38883 171.875 9.42119 172.001 9.47174C172.129 9.52155 172.221 9.59246 172.279 9.68483C172.337 9.77719 172.381 9.90046 172.415 10.0543L175.413 21.4092H175.438L178.228 10.0081C178.252 9.88519 178.285 9.77937 178.327 9.69064C178.367 9.60228 178.445 9.53283 178.56 9.48301C178.674 9.43319 178.838 9.39864 179.051 9.37937C179.264 9.35974 179.563 9.35028 179.949 9.35028C180.309 9.35028 180.59 9.35974 180.791 9.37937C180.992 9.39864 181.136 9.45028 181.227 9.53501C181.317 9.61937 181.357 9.74446 181.344 9.90992C181.331 10.0754 181.288 10.3005 181.215 10.5852L177.564 23.579Z" fill="white"/>
<path fill-rule="evenodd" clip-rule="evenodd" d="M68.1342 16.8049C68.1342 16.0973 68.0462 15.4394 67.8699 14.8314C67.6939 14.2238 67.4113 13.6969 67.0219 13.2511C66.6328 12.8045 66.1328 12.4565 65.5226 12.2063C64.9113 11.9565 64.1109 11.8311 63.1193 11.8311H61.4851V21.9863H63.1691C64.0539 21.9863 64.7989 21.8787 65.4055 21.6631C66.0113 21.4482 66.5179 21.1227 66.9233 20.6882C67.3295 20.2533 67.632 19.7129 67.8339 19.0671C68.0335 18.4205 68.1342 17.6667 68.1342 16.8049ZM71.4771 16.7013C71.4771 18.0703 71.2869 19.2416 70.9055 20.2151C70.5248 21.1882 69.9779 21.9823 69.2648 22.598C68.5524 23.2136 67.6862 23.6652 66.6655 23.954C65.6448 24.2423 64.4302 24.3867 63.0211 24.3867H59.2229C58.9531 24.3867 58.7244 24.3118 58.5404 24.1616C58.3564 24.0114 58.264 23.7671 58.264 23.4289V10.4118C58.264 10.0733 58.3564 9.82889 58.5404 9.67907C58.7244 9.52925 58.9531 9.45398 59.2229 9.45398H63.3033C64.7215 9.45398 65.924 9.60998 66.912 9.92125C67.8993 10.2333 68.7309 10.6947 69.4069 11.3063C70.0822 11.918 70.5964 12.674 70.9495 13.5736C71.3011 14.474 71.4771 15.5165 71.4771 16.7013Z" fill="#0E2653"/>
<path fill-rule="evenodd" clip-rule="evenodd" d="M85.0469 16.9089C85.0469 16.1242 84.9814 15.4107 84.8509 14.7682C84.7196 14.126 84.4956 13.5758 84.1803 13.118C83.865 12.6602 83.4461 12.3064 82.921 12.0562C82.397 11.8064 81.7407 11.6813 80.9545 11.6813C80.1592 11.6813 79.4949 11.8216 78.9632 12.1024C78.4305 12.3834 78 12.7584 77.6727 13.2278C77.3451 13.6969 77.1131 14.2453 76.9781 14.8718C76.8429 15.4991 76.7756 16.1624 76.7756 16.8627C76.7756 17.678 76.8411 18.4111 76.9716 19.0609C77.1029 19.7111 77.3247 20.2667 77.6363 20.7285C77.9469 21.19 78.3651 21.542 78.8891 21.7842C79.4141 22.0267 80.0731 22.1478 80.8687 22.1478C81.6632 22.1478 82.3261 22.0093 82.86 21.7325C83.392 21.4554 83.8225 21.0787 84.1498 20.6016C84.4781 20.1245 84.7094 19.5685 84.8443 18.934C84.98 18.2994 85.0469 17.6245 85.0469 16.9089ZM88.4396 16.7474C88.4396 17.986 88.2756 19.0936 87.9483 20.0707C87.6207 21.0478 87.1327 21.8765 86.4858 22.5576C85.8381 23.2384 85.037 23.7576 84.0825 24.1154C83.128 24.4733 82.0236 24.6522 80.7698 24.6522C79.5327 24.6522 78.4531 24.5002 77.5312 24.1962C76.6087 23.8922 75.8411 23.4289 75.2265 22.8056C74.6123 22.1827 74.1512 21.39 73.8429 20.4285C73.5371 19.4667 73.3829 18.3282 73.3829 17.0125C73.3829 15.8049 73.5469 14.7184 73.8741 13.7525C74.2025 12.7871 74.6898 11.966 75.3374 11.2889C75.9843 10.6122 76.7854 10.0925 77.74 9.73109C78.6945 9.36963 79.8032 9.1889 81.0647 9.1889C82.2698 9.1889 83.333 9.33872 84.2549 9.63872C85.1767 9.93872 85.9469 10.4005 86.5654 11.0234C87.184 11.6467 87.6512 12.4333 87.9665 13.3834C88.2818 14.3336 88.4396 15.4547 88.4396 16.7474Z" fill="#0E2653"/>
<path fill-rule="evenodd" clip-rule="evenodd" d="M102.071 16.9089C102.071 16.1242 102.006 15.4107 101.874 14.7682C101.743 14.126 101.52 13.5758 101.204 13.118C100.888 12.6602 100.469 12.3064 99.9445 12.0562C99.4198 11.8064 98.7641 11.6813 97.9779 11.6813C97.1834 11.6813 96.519 11.8216 95.9874 12.1024C95.4539 12.3834 95.0241 12.7584 94.6961 13.2278C94.3678 13.6969 94.1365 14.2453 94.0016 14.8718C93.8667 15.4991 93.799 16.1624 93.799 16.8627C93.799 17.678 93.8645 18.4111 93.9958 19.0609C94.1263 19.7111 94.3474 20.2667 94.659 20.7285C94.9703 21.19 95.3878 21.542 95.9125 21.7842C96.4369 22.0267 97.0972 22.1478 97.8914 22.1478C98.6867 22.1478 99.3503 22.0093 99.8827 21.7325C100.415 21.4554 100.846 21.0787 101.173 20.6016C101.501 20.1245 101.732 19.5685 101.868 18.934C102.003 18.2994 102.071 17.6245 102.071 16.9089ZM105.464 16.7474C105.464 17.986 105.3 19.0936 104.972 20.0707C104.643 21.0478 104.155 21.8765 103.509 22.5576C102.862 23.2384 102.06 23.7576 101.106 24.1154C100.151 24.4733 99.0478 24.6522 97.7932 24.6522C96.5561 24.6522 95.4765 24.5002 94.5547 24.1962C93.6329 23.8922 92.8652 23.4289 92.25 22.8056C91.635 22.1827 91.1747 21.39 90.867 20.4285C90.5598 19.4667 90.407 18.3282 90.407 17.0125C90.407 15.8049 90.5703 14.7184 90.8976 13.7525C91.2252 12.7871 91.7132 11.966 92.3609 11.2889C93.0078 10.6122 93.8081 10.0925 94.7634 9.73109C95.7172 9.36963 96.8267 9.1889 98.0889 9.1889C99.2932 9.1889 100.356 9.33872 101.278 9.63872C102.2 9.93872 102.97 10.4005 103.589 11.0234C104.207 11.6467 104.675 12.4333 104.99 13.3834C105.306 14.3336 105.464 15.4547 105.464 16.7474Z" fill="#0E2653"/>
<path fill-rule="evenodd" clip-rule="evenodd" d="M115.812 13.8624C115.812 13.37 115.694 12.9544 115.456 12.6159C115.219 12.2777 114.829 12.0388 114.288 11.9002C114.124 11.862 113.938 11.8311 113.729 11.8082C113.52 11.7849 113.231 11.7737 112.863 11.7737H111.412V16.0086H113.06C113.518 16.0086 113.92 15.9569 114.263 15.8529C114.608 15.749 114.894 15.6028 115.123 15.4148C115.353 15.226 115.525 15.0009 115.64 14.7395C115.755 14.4777 115.812 14.1857 115.812 13.8624ZM119.979 23.994C119.979 24.0791 119.963 24.15 119.93 24.2079C119.897 24.2653 119.82 24.3133 119.697 24.3522C119.574 24.3904 119.394 24.4173 119.155 24.4326C118.918 24.4482 118.594 24.4559 118.184 24.4559C117.841 24.4559 117.566 24.4482 117.362 24.4326C117.156 24.4173 116.994 24.3886 116.875 24.3464C116.756 24.3039 116.672 24.25 116.624 24.1849C116.575 24.1191 116.533 24.0402 116.501 23.9479L115.075 20.613C114.903 20.2362 114.735 19.9013 114.571 19.6093C114.407 19.3169 114.225 19.0726 114.023 18.8762C113.824 18.6802 113.592 18.5322 113.33 18.4319C113.067 18.3322 112.764 18.282 112.42 18.282H111.412V23.9711C111.412 24.0482 111.386 24.1173 111.332 24.1788C111.278 24.2406 111.191 24.2904 111.068 24.3289C110.945 24.3675 110.781 24.3984 110.577 24.4213C110.371 24.4446 110.109 24.4559 109.79 24.4559C109.478 24.4559 109.218 24.4446 109.009 24.4213C108.8 24.3984 108.634 24.3675 108.511 24.3289C108.388 24.2904 108.303 24.2406 108.254 24.1788C108.204 24.1173 108.18 24.0482 108.18 23.9711V10.4119C108.18 10.0733 108.272 9.82895 108.456 9.67913C108.64 9.52931 108.868 9.45404 109.138 9.45404H113.256C113.673 9.45404 114.018 9.46168 114.288 9.47695C114.558 9.49259 114.805 9.51186 115.026 9.53513C115.665 9.6195 116.241 9.76568 116.753 9.97368C117.265 10.1813 117.699 10.4522 118.055 10.7871C118.412 11.1217 118.684 11.518 118.873 11.9759C119.062 12.4333 119.155 12.9584 119.155 13.5508C119.155 14.0511 119.088 14.5064 118.953 14.918C118.818 15.3297 118.619 15.6973 118.356 16.0206C118.094 16.3431 117.771 16.6242 117.386 16.8628C117.001 17.101 116.563 17.2937 116.071 17.4399C116.308 17.5475 116.532 17.678 116.741 17.8319C116.95 17.986 117.146 18.1726 117.33 18.3919C117.515 18.6111 117.689 18.8609 117.853 19.142C118.016 19.4228 118.177 19.7399 118.332 20.094L119.672 23.0366C119.795 23.3286 119.876 23.5424 119.918 23.6769C119.958 23.8115 119.979 23.9173 119.979 23.994Z" fill="#0E2653"/>
<path fill-rule="evenodd" clip-rule="evenodd" d="M131.275 10.7005C131.275 10.9314 131.265 11.1256 131.244 11.2834C131.224 11.4408 131.191 11.5659 131.146 11.6583C131.101 11.7506 131.05 11.8197 130.992 11.8659C130.935 11.9121 130.87 11.9354 130.796 11.9354H125.596V15.951H130.477C130.549 15.951 130.615 15.9703 130.673 16.0088C130.73 16.047 130.781 16.1128 130.826 16.2052C130.872 16.2972 130.905 16.4201 130.925 16.5739C130.945 16.7281 130.956 16.9201 130.956 17.151C130.956 17.3819 130.945 17.5743 130.925 17.7281C130.905 17.8819 130.872 18.0092 130.826 18.1088C130.781 18.2088 130.73 18.2801 130.673 18.3226C130.615 18.3648 130.549 18.3859 130.477 18.3859H125.596V23.9481C125.596 24.0328 125.572 24.1059 125.524 24.1674C125.473 24.2288 125.386 24.2808 125.259 24.3234C125.131 24.3656 124.965 24.3983 124.76 24.4212C124.555 24.4445 124.293 24.4557 123.975 24.4557C123.663 24.4557 123.402 24.4445 123.193 24.4212C122.984 24.3983 122.819 24.3656 122.696 24.3234C122.572 24.2808 122.484 24.2288 122.432 24.1674C122.378 24.1059 122.352 24.0328 122.352 23.9481V10.4117C122.352 10.0732 122.443 9.82919 122.628 9.67901C122.813 9.52919 123.04 9.45392 123.311 9.45392H130.796C130.87 9.45392 130.935 9.47537 130.992 9.51755C131.05 9.55974 131.101 9.62919 131.146 9.72519C131.191 9.82155 131.224 9.95028 131.244 10.1121C131.265 10.2736 131.275 10.4696 131.275 10.7005Z" fill="#3783E3"/>
<path fill-rule="evenodd" clip-rule="evenodd" d="M142.644 23.1174C142.644 23.3483 142.634 23.5425 142.614 23.7003C142.593 23.8577 142.562 23.9886 142.521 24.0926C142.48 24.1963 142.429 24.2712 142.367 24.3174C142.307 24.3635 142.234 24.3865 142.153 24.3865H134.864C134.594 24.3865 134.366 24.3115 134.182 24.1617C133.997 24.0115 133.905 23.7672 133.905 23.4286V9.86937C133.905 9.79228 133.932 9.72355 133.986 9.66173C134.038 9.60028 134.126 9.5501 134.25 9.51192C134.373 9.47337 134.538 9.44283 134.747 9.41955C134.956 9.39664 135.217 9.38464 135.529 9.38464C135.847 9.38464 136.109 9.39664 136.314 9.41955C136.519 9.44283 136.683 9.47337 136.807 9.51192C136.93 9.5501 137.017 9.60028 137.07 9.66173C137.123 9.72355 137.15 9.79228 137.15 9.86937V21.8825H142.153C142.234 21.8825 142.307 21.9035 142.367 21.9457C142.429 21.9883 142.48 22.0574 142.521 22.1537C142.562 22.2497 142.593 22.377 142.614 22.5345C142.634 22.6923 142.644 22.8865 142.644 23.1174Z" fill="#3783E3"/>
<path fill-rule="evenodd" clip-rule="evenodd" d="M155.021 16.9089C155.021 16.1242 154.956 15.4107 154.825 14.7682C154.695 14.126 154.47 13.5758 154.156 13.118C153.839 12.6602 153.42 12.3064 152.895 12.0562C152.371 11.8064 151.716 11.6813 150.929 11.6813C150.134 11.6813 149.471 11.8216 148.938 12.1024C148.406 12.3834 147.974 12.7584 147.648 13.2278C147.319 13.6969 147.089 14.2453 146.953 14.8718C146.818 15.4991 146.75 16.1624 146.75 16.8627C146.75 17.678 146.815 18.4111 146.946 19.0609C147.077 19.7111 147.299 20.2667 147.61 20.7285C147.922 21.19 148.34 21.542 148.864 21.7842C149.389 22.0267 150.047 22.1478 150.843 22.1478C151.638 22.1478 152.302 22.0093 152.834 21.7325C153.366 21.4554 153.797 21.0787 154.125 20.6016C154.453 20.1245 154.684 19.5685 154.819 18.934C154.954 18.2994 155.021 17.6245 155.021 16.9089ZM158.414 16.7474C158.414 17.986 158.25 19.0936 157.923 20.0707C157.595 21.0478 157.107 21.8765 156.46 22.5576C155.813 23.2384 155.011 23.7576 154.058 24.1154C153.102 24.4733 151.998 24.6522 150.744 24.6522C149.506 24.6522 148.427 24.5002 147.505 24.1962C146.583 23.8922 145.815 23.4289 145.201 22.8056C144.587 22.1827 144.125 21.39 143.819 20.4285C143.511 19.4667 143.357 18.3282 143.357 17.0125C143.357 15.8049 143.521 14.7184 143.849 13.7525C144.177 12.7871 144.664 11.966 145.311 11.2889C145.959 10.6122 146.76 10.0925 147.714 9.73109C148.67 9.36963 149.777 9.1889 151.039 9.1889C152.244 9.1889 153.307 9.33872 154.229 9.63872C155.151 9.93872 155.922 10.4005 156.54 11.0234C157.159 11.6467 157.626 12.4333 157.941 13.3834C158.256 14.3336 158.414 15.4547 158.414 16.7474Z" fill="#3783E3"/>
<path fill-rule="evenodd" clip-rule="evenodd" d="M177.564 23.6134C177.515 23.7982 177.448 23.9462 177.361 24.0578C177.276 24.1691 177.146 24.2542 176.974 24.3116C176.803 24.3694 176.58 24.408 176.31 24.4269C176.041 24.4462 175.696 24.4556 175.278 24.4556C174.811 24.4556 174.437 24.4462 174.153 24.4269C173.872 24.408 173.647 24.3694 173.484 24.3116C173.32 24.2542 173.2 24.1691 173.127 24.0578C173.053 23.9462 172.995 23.7982 172.954 23.6134L170.411 14.1509H170.387L167.977 23.6134C167.936 23.7902 167.878 23.9349 167.805 24.0462C167.731 24.1578 167.614 24.244 167.455 24.3058C167.295 24.3672 167.078 24.408 166.803 24.4269C166.528 24.4462 166.166 24.4556 165.715 24.4556C165.239 24.4556 164.861 24.4462 164.577 24.4269C164.296 24.408 164.072 24.3694 163.908 24.3116C163.744 24.2542 163.627 24.1691 163.552 24.0578C163.477 23.9462 163.418 23.7982 163.367 23.6134L159.754 10.5851C159.68 10.308 159.639 10.0905 159.631 9.93307C159.624 9.77525 159.67 9.65416 159.772 9.56943C159.875 9.4847 160.043 9.43307 160.276 9.4138C160.509 9.39416 160.835 9.3847 161.253 9.3847C161.639 9.3847 161.944 9.39089 162.17 9.40216C162.394 9.4138 162.565 9.44034 162.679 9.48325C162.794 9.52543 162.871 9.58689 162.913 9.66725C162.953 9.74834 162.986 9.8618 163.011 10.008L165.801 21.444H165.814L168.714 10.0891C168.747 9.94252 168.79 9.82325 168.844 9.73089C168.896 9.63852 168.987 9.56761 169.115 9.51743C169.241 9.46761 169.416 9.43307 169.636 9.4138C169.858 9.39416 170.153 9.3847 170.521 9.3847C170.914 9.3847 171.229 9.3927 171.462 9.40798C171.695 9.42361 171.875 9.45598 172.001 9.50616C172.129 9.55598 172.221 9.62725 172.279 9.71961C172.337 9.81198 172.381 9.93489 172.415 10.0891L175.413 21.444H175.438L178.228 10.0429C178.252 9.91961 178.285 9.8138 178.327 9.72543C178.367 9.6367 178.445 9.56761 178.56 9.51743C178.674 9.46761 178.838 9.43307 179.051 9.4138C179.264 9.39416 179.563 9.3847 179.949 9.3847C180.309 9.3847 180.59 9.39416 180.791 9.4138C180.992 9.43307 181.136 9.4847 181.227 9.56943C181.317 9.65416 181.357 9.77925 181.344 9.94434C181.331 10.1098 181.288 10.3349 181.215 10.6196L177.564 23.6134Z" fill="#3783E3"/>
</g>
<defs>
<clipPath id="clip0">
<rect width="181.455" height="32" fill="white"/>
</clipPath>
</defs>
</svg>
